<svg width="588" height="113" viewBox="0 0 588 113" fill="none" xmlns="http://www.w3.org/2000/svg">
<path d="M17.375 20.793V54.4258H34.1914C36.4961 54.4258 38.6641 53.9961 40.6953 53.1367C42.7266 52.2383 44.5039 51.0273 46.0273 49.5039C47.5508 47.9805 48.7422 46.2031 49.6016 44.1719C50.5 42.1016 50.9492 39.9141 50.9492 37.6094C50.9492 35.3047 50.5 33.1367 49.6016 31.1055C48.7422 29.0352 47.5508 27.2383 46.0273 25.7148C44.5039 24.1914 42.7266 23 40.6953 22.1406C38.6641 21.2422 36.4961 20.793 34.1914 20.793H17.375ZM17.375 88H0.558594V3.97656H34.1914C37.2773 3.97656 40.2461 4.38672 43.0977 5.20703C45.9492 5.98828 48.6055 7.12109 51.0664 8.60547C53.5664 10.0508 55.832 11.8086 57.8633 13.8789C59.9336 15.9102 61.6914 18.1758 63.1367 20.6758C64.6211 23.1758 65.7539 25.8516 66.5352 28.7031C67.3555 31.5547 67.7656 34.5234 67.7656 37.6094C67.7656 40.5 67.3945 43.3125 66.6523 46.0469C65.9492 48.7812 64.9141 51.3789 63.5469 53.8398C62.2188 56.3008 60.5781 58.5664 58.625 60.6367C56.6719 62.707 54.4844 64.5039 52.0625 66.0273L61.3789 88H43.5078L36.1836 71.0664L17.375 71.1836V88ZM101.398 72.6484C102.023 72.8438 102.648 72.9805 103.273 73.0586C103.898 73.0977 104.523 73.1172 105.148 73.1172C106.711 73.1172 108.215 72.9023 109.66 72.4727C111.105 72.043 112.453 71.4375 113.703 70.6562C114.992 69.8359 116.125 68.8594 117.102 67.7266C118.117 66.5547 118.938 65.2656 119.562 63.8594L131.281 75.6367C129.797 77.7461 128.078 79.6406 126.125 81.3203C124.211 83 122.121 84.4258 119.855 85.5977C117.629 86.7695 115.266 87.6484 112.766 88.2344C110.305 88.8594 107.766 89.1719 105.148 89.1719C100.734 89.1719 96.5742 88.3516 92.668 86.7109C88.8008 85.0703 85.4023 82.7852 82.4727 79.8555C79.582 76.9258 77.2969 73.4492 75.6172 69.4258C73.9375 65.3633 73.0977 60.9102 73.0977 56.0664C73.0977 51.1055 73.9375 46.5742 75.6172 42.4727C77.2969 38.3711 79.582 34.875 82.4727 31.9844C85.4023 29.0938 88.8008 26.8477 92.668 25.2461C96.5742 23.6445 100.734 22.8438 105.148 22.8438C107.766 22.8438 110.324 23.1562 112.824 23.7812C115.324 24.4063 117.688 25.3047 119.914 26.4766C122.18 27.6484 124.289 29.0938 126.242 30.8125C128.195 32.4922 129.914 34.3867 131.398 36.4961L101.398 72.6484ZM109.602 39.6602C108.859 39.3867 108.117 39.2109 107.375 39.1328C106.672 39.0547 105.93 39.0156 105.148 39.0156C102.961 39.0156 100.891 39.4258 98.9375 40.2461C97.0234 41.0273 95.3438 42.1602 93.8984 43.6445C92.4922 45.1289 91.3789 46.9258 90.5586 49.0352C89.7383 51.1055 89.3281 53.4492 89.3281 56.0664C89.3281 56.6523 89.3477 57.3164 89.3867 58.0586C89.4648 58.8008 89.5625 59.5625 89.6797 60.3438C89.8359 61.0859 90.0117 61.8086 90.207 62.5117C90.4023 63.2148 90.6562 63.8398 90.9688 64.3867L109.602 39.6602ZM199.777 88H195.91L189.699 79.3867C188.176 80.7539 186.555 82.043 184.836 83.2539C183.156 84.4258 181.379 85.4609 179.504 86.3594C177.629 87.2188 175.695 87.9023 173.703 88.4102C171.75 88.918 169.758 89.1719 167.727 89.1719C163.312 89.1719 159.152 88.4297 155.246 86.9453C151.379 85.4609 147.98 83.3125 145.051 80.5C142.16 77.6484 139.875 74.1719 138.195 70.0703C136.516 65.9688 135.676 61.3008 135.676 56.0664C135.676 51.1836 136.516 46.7109 138.195 42.6484C139.875 38.5469 142.16 35.0312 145.051 32.1016C147.98 29.1719 151.379 26.9062 155.246 25.3047C159.152 23.6641 163.312 22.8438 167.727 22.8438C169.758 22.8438 171.77 23.0977 173.762 23.6055C175.754 24.1133 177.688 24.8164 179.562 25.7148C181.438 26.6133 183.215 27.668 184.895 28.8789C186.613 30.0898 188.215 31.3984 189.699 32.8047L195.91 25.3633H199.777V88ZM183.664 56.0664C183.664 53.8789 183.234 51.7695 182.375 49.7383C181.555 47.668 180.422 45.8516 178.977 44.2891C177.531 42.6875 175.832 41.418 173.879 40.4805C171.965 39.5039 169.914 39.0156 167.727 39.0156C165.539 39.0156 163.469 39.3867 161.516 40.1289C159.602 40.8711 157.922 41.9648 156.477 43.4102C155.07 44.8555 153.957 46.6523 153.137 48.8008C152.316 50.9102 151.906 53.332 151.906 56.0664C151.906 58.8008 152.316 61.2422 153.137 63.3906C153.957 65.5 155.07 67.2773 156.477 68.7227C157.922 70.168 159.602 71.2617 161.516 72.0039C163.469 72.7461 165.539 73.1172 167.727 73.1172C169.914 73.1172 171.965 72.6484 173.879 71.7109C175.832 70.7344 177.531 69.4648 178.977 67.9023C180.422 66.3008 181.555 64.4844 182.375 62.4531C183.234 60.3828 183.664 58.2539 183.664 56.0664ZM272.668 88H268.801L262.59 79.3867C261.066 80.7539 259.445 82.043 257.727 83.2539C256.047 84.4258 254.27 85.4609 252.395 86.3594C250.52 87.2188 248.586 87.9023 246.594 88.4102C244.641 88.918 242.648 89.1719 240.617 89.1719C236.203 89.1719 232.043 88.3516 228.137 86.7109C224.27 85.0312 220.871 82.7266 217.941 79.7969C215.051 76.8281 212.766 73.332 211.086 69.3086C209.406 65.2461 208.566 60.832 208.566 56.0664C208.566 51.3398 209.406 46.9453 211.086 42.8828C212.766 38.8203 215.051 35.3047 217.941 32.3359C220.871 29.3672 224.27 27.043 228.137 25.3633C232.043 23.6836 236.203 22.8438 240.617 22.8438C242.023 22.8438 243.469 22.9609 244.953 23.1953C246.477 23.4297 247.941 23.8203 249.348 24.3672C250.793 24.875 252.141 25.5586 253.391 26.418C254.641 27.2773 255.695 28.332 256.555 29.582V0.285156H272.668V88ZM256.555 56.0664C256.555 53.8789 256.125 51.7695 255.266 49.7383C254.445 47.668 253.312 45.8516 251.867 44.2891C250.422 42.6875 248.723 41.418 246.77 40.4805C244.855 39.5039 242.805 39.0156 240.617 39.0156C238.43 39.0156 236.359 39.4062 234.406 40.1875C232.492 40.9688 230.812 42.1016 229.367 43.5859C227.961 45.0312 226.848 46.8086 226.027 48.918C225.207 51.0273 224.797 53.4102 224.797 56.0664C224.797 58.3711 225.207 60.5586 226.027 62.6289C226.848 64.6992 227.961 66.5156 229.367 68.0781C230.812 69.6406 232.492 70.8711 234.406 71.7695C236.359 72.668 238.43 73.1172 240.617 73.1172C242.805 73.1172 244.855 72.6484 246.77 71.7109C248.723 70.7344 250.422 69.4648 251.867 67.9023C253.312 66.3008 254.445 64.4844 255.266 62.4531C256.125 60.3828 256.555 58.2539 256.555 56.0664ZM300.031 111.906V95.793L308.938 95.9102C310.5 95.9102 312.004 95.6562 313.449 95.1484C314.895 94.6406 316.223 93.9375 317.434 93.0391C318.684 92.1406 319.777 91.0664 320.715 89.8164C321.652 88.6055 322.414 87.2773 323 85.832C321.242 86.5742 319.445 87.3164 317.609 88.0586C315.812 88.8008 313.996 89.1719 312.16 89.1719C308.293 89.1719 304.66 88.4883 301.262 87.1211C297.863 85.7539 294.875 83.8203 292.297 81.3203C289.758 78.7812 287.746 75.7148 286.262 72.1211C284.816 68.4883 284.094 64.4258 284.094 59.9336V25.2461H300.031V59.9336C300.031 62.1602 300.344 64.1133 300.969 65.793C301.633 67.4336 302.512 68.8203 303.605 69.9531C304.699 71.0469 305.969 71.8672 307.414 72.4141C308.898 72.9609 310.48 73.2344 312.16 73.2344C313.801 73.2344 315.344 72.8633 316.789 72.1211C318.273 71.3398 319.562 70.3242 320.656 69.0742C321.75 67.8242 322.609 66.418 323.234 64.8555C323.859 63.2539 324.172 61.6133 324.172 59.9336V25.2461H340.285V80.0898C340.246 84.5039 339.387 88.6445 337.707 92.5117C336.027 96.3789 333.723 99.7578 330.793 102.648C327.902 105.539 324.523 107.824 320.656 109.504C316.789 111.184 312.648 112.023 308.234 112.023L300.031 111.906ZM418.449 3.97656L390.852 88H374.035L346.555 3.97656H365.656L382.414 60.0508L399.23 3.97656H418.449ZM444.406 72.6484C445.031 72.8438 445.656 72.9805 446.281 73.0586C446.906 73.0977 447.531 73.1172 448.156 73.1172C449.719 73.1172 451.223 72.9023 452.668 72.4727C454.113 72.043 455.461 71.4375 456.711 70.6562C458 69.8359 459.133 68.8594 460.109 67.7266C461.125 66.5547 461.945 65.2656 462.57 63.8594L474.289 75.6367C472.805 77.7461 471.086 79.6406 469.133 81.3203C467.219 83 465.129 84.4258 462.863 85.5977C460.637 86.7695 458.273 87.6484 455.773 88.2344C453.312 88.8594 450.773 89.1719 448.156 89.1719C443.742 89.1719 439.582 88.3516 435.676 86.7109C431.809 85.0703 428.41 82.7852 425.48 79.8555C422.59 76.9258 420.305 73.4492 418.625 69.4258C416.945 65.3633 416.105 60.9102 416.105 56.0664C416.105 51.1055 416.945 46.5742 418.625 42.4727C420.305 38.3711 422.59 34.875 425.48 31.9844C428.41 29.0938 431.809 26.8477 435.676 25.2461C439.582 23.6445 443.742 22.8438 448.156 22.8438C450.773 22.8438 453.332 23.1562 455.832 23.7812C458.332 24.4063 460.695 25.3047 462.922 26.4766C465.188 27.6484 467.297 29.0938 469.25 30.8125C471.203 32.4922 472.922 34.3867 474.406 36.4961L444.406 72.6484ZM452.609 39.6602C451.867 39.3867 451.125 39.2109 450.383 39.1328C449.68 39.0547 448.938 39.0156 448.156 39.0156C445.969 39.0156 443.898 39.4258 441.945 40.2461C440.031 41.0273 438.352 42.1602 436.906 43.6445C435.5 45.1289 434.387 46.9258 433.566 49.0352C432.746 51.1055 432.336 53.4492 432.336 56.0664C432.336 56.6523 432.355 57.3164 432.395 58.0586C432.473 58.8008 432.57 59.5625 432.688 60.3438C432.844 61.0859 433.02 61.8086 433.215 62.5117C433.41 63.2148 433.664 63.8398 433.977 64.3867L452.609 39.6602ZM498.488 88H482.492V25.2461H486.359L491.633 32.6875C494.211 30.3438 497.141 28.5469 500.422 27.2969C503.703 26.0078 507.102 25.3633 510.617 25.3633H524.738V41.3008H510.617C508.938 41.3008 507.355 41.6133 505.871 42.2383C504.387 42.8633 503.098 43.7227 502.004 44.8164C500.91 45.9102 500.051 47.1992 499.426 48.6836C498.801 50.168 498.488 51.75 498.488 53.4297V88ZM546.828 111.906V95.793L555.734 95.9102C557.297 95.9102 558.801 95.6562 560.246 95.1484C561.691 94.6406 563.02 93.9375 564.23 93.0391C565.48 92.1406 566.574 91.0664 567.512 89.8164C568.449 88.6055 569.211 87.2773 569.797 85.832C568.039 86.5742 566.242 87.3164 564.406 88.0586C562.609 88.8008 560.793 89.1719 558.957 89.1719C555.09 89.1719 551.457 88.4883 548.059 87.1211C544.66 85.7539 541.672 83.8203 539.094 81.3203C536.555 78.7812 534.543 75.7148 533.059 72.1211C531.613 68.4883 530.891 64.4258 530.891 59.9336V25.2461H546.828V59.9336C546.828 62.1602 547.141 64.1133 547.766 65.793C548.43 67.4336 549.309 68.8203 550.402 69.9531C551.496 71.0469 552.766 71.8672 554.211 72.4141C555.695 72.9609 557.277 73.2344 558.957 73.2344C560.598 73.2344 562.141 72.8633 563.586 72.1211C565.07 71.3398 566.359 70.3242 567.453 69.0742C568.547 67.8242 569.406 66.418 570.031 64.8555C570.656 63.2539 570.969 61.6133 570.969 59.9336V25.2461H587.082V80.0898C587.043 84.5039 586.184 88.6445 584.504 92.5117C582.824 96.3789 580.52 99.7578 577.59 102.648C574.699 105.539 571.32 107.824 567.453 109.504C563.586 111.184 559.445 112.023 555.031 112.023L546.828 111.906Z" fill="#D82356"/>
</svg>
