<svg width="25" height="19" viewBox="0 0 25 19" fill="none" xmlns="http://www.w3.org/2000/svg">
<path d="M7.54253 14.8196L2.48211 9.7592C2.20944 9.48652 1.83961 9.33333 1.45399 9.33333C1.06837 9.33333 0.698539 9.48652 0.425863 9.7592C0.153188 10.0319 0 10.4017 0 10.7873C0 10.9783 0.0376088 11.1673 0.110679 11.3437C0.183748 11.5201 0.290848 11.6804 0.425863 11.8154L6.5217 17.9113C7.09045 18.48 8.0092 18.48 8.57795 17.9113L24.0071 2.48211C24.2798 2.20944 24.433 1.83961 24.433 1.45399C24.433 1.06837 24.2798 0.698539 24.0071 0.425864C23.7344 0.153188 23.3646 0 22.979 0C22.5934 0 22.2235 0.153188 21.9509 0.425864L7.54253 14.8196Z" fill="white"/>
</svg>
