<svg width="25" height="24" viewBox="0 0 25 24" fill="none" xmlns="http://www.w3.org/2000/svg">
<path d="M9.45982 16.17L5.96184 12.7C5.77336 12.513 5.51771 12.4079 5.25115 12.4079C4.9846 12.4079 4.72895 12.513 4.54047 12.7C4.35198 12.8869 4.24609 13.1405 4.24609 13.405C4.24609 13.5359 4.27209 13.6655 4.3226 13.7865C4.37311 13.9075 4.44714 14.0174 4.54047 14.11L8.75418 18.29C9.14732 18.68 9.78241 18.68 10.1756 18.29L20.8409 7.70996C21.0294 7.52298 21.1352 7.26938 21.1352 7.00496C21.1352 6.74053 21.0294 6.48693 20.8409 6.29996C20.6524 6.11298 20.3967 6.00793 20.1302 6.00793C19.8636 6.00793 19.608 6.11298 19.4195 6.29996L9.45982 16.17Z" fill="#D82356"/>
</svg>
