<svg width="16" height="10" viewBox="0 0 16 10" fill="none" xmlns="http://www.w3.org/2000/svg">
<path d="M5.71324 10.266L3.51025 8.06301C3.39154 7.9443 3.23054 7.87761 3.06266 7.87761C2.89479 7.87761 2.73379 7.9443 2.61508 8.06301C2.49638 8.18171 2.42969 8.34271 2.42969 8.51059C2.42969 8.59371 2.44606 8.67602 2.47787 8.75282C2.50968 8.82962 2.5563 8.89939 2.61508 8.95817L5.26883 11.6119C5.51643 11.8595 5.9164 11.8595 6.164 11.6119L12.8809 4.89501C12.9996 4.77631 13.0663 4.61531 13.0663 4.44743C13.0663 4.27955 12.9996 4.11855 12.8809 3.99985C12.7622 3.88114 12.6012 3.81445 12.4333 3.81445C12.2655 3.81445 12.1045 3.88114 11.9857 3.99985L5.71324 10.266Z" fill="#2E2D2D"/>
</svg>
