<svg width="69" height="71" viewBox="0 0 69 71" fill="none" xmlns="http://www.w3.org/2000/svg">
<path d="M5.48828 49.9805C6.9043 49.9805 8.14453 50.498 9.00391 51.3672H13.0273V49.0234H15.5078V59.4336H13.0273V57.3047H8.98438C8.125 58.1641 6.89453 58.6816 5.48828 58.6719C2.79297 58.6914 0.742188 56.8359 0.761719 54.3359C0.742188 51.7969 2.79297 49.9805 5.48828 49.9805ZM5.48828 52.1094C4.10156 52.1094 3.10547 52.9297 3.125 54.3359C3.10547 55.7031 4.10156 56.582 5.48828 56.5625C6.83594 56.582 7.8125 55.7031 7.8125 54.3359C7.8125 52.9297 6.83594 52.1094 5.48828 52.1094ZM9.43359 59.8047C13.2031 59.8047 15.5469 61.0938 15.5664 63.3008C15.5469 65.5078 13.2031 66.7969 9.43359 66.7969C5.68359 66.7969 3.32031 65.5078 3.32031 63.3008C3.32031 61.0938 5.68359 59.8047 9.43359 59.8047ZM9.43359 61.6992C7.07031 61.6992 5.76172 62.2266 5.76172 63.3008C5.76172 64.3359 7.07031 64.8633 9.43359 64.8633C11.8359 64.8633 13.125 64.3359 13.125 63.3008C13.125 62.2266 11.8359 61.6992 9.43359 61.6992ZM10.0781 53.3398C10.1367 53.6523 10.1758 53.9941 10.1758 54.3359C10.1758 54.6777 10.1367 55 10.0781 55.3125H13.0273V53.3398H10.0781ZM22.5734 49.7852C24.8488 49.7656 26.6555 51.0645 27.1437 52.9688H30.1125V49.0234H32.593V58.5742H30.1125V54.9609H27.1633C26.6945 56.9141 24.8684 58.2422 22.5734 58.2422C19.8391 58.2422 17.8273 56.4648 17.8469 53.9844C17.8273 51.543 19.8391 49.7656 22.5734 49.7852ZM22.5734 51.8555C21.1867 51.8359 20.1906 52.6562 20.2102 53.9844C20.1906 55.3125 21.1867 56.1523 22.5734 56.1523C23.9211 56.1523 24.8977 55.3125 24.8977 53.9844C24.8977 52.6562 23.9211 51.8359 22.5734 51.8555ZM23.1984 59.3555V61.0742H30.1125V59.3555H32.593V66.6016H20.7375V59.3555H23.1984ZM23.1984 64.5898H30.1125V62.9883H23.1984V64.5898ZM44.0141 55.3906V57.5195H50.9086V59.5312H34.6977V57.5195H41.5531V55.3906H44.0141ZM42.7836 60.5078C46.6508 60.5078 48.9555 61.6211 48.975 63.6523C48.9555 65.6836 46.6508 66.7969 42.7836 66.7969C38.8773 66.7969 36.5531 65.6836 36.5531 63.6523C36.5531 61.6211 38.8773 60.5078 42.7836 60.5078ZM42.7836 62.4023C40.3031 62.4023 39.0727 62.8125 39.0922 63.6523C39.0727 64.5312 40.3031 64.9414 42.7836 64.9414C45.2055 64.9414 46.4555 64.5312 46.475 63.6523C46.4555 62.8125 45.2055 62.4023 42.7836 62.4023ZM49.4437 49.7852V51.7383H44.6195C45.059 52.959 46.8754 54.1504 50.2055 54.4531L49.3266 56.4062C45.977 56.0742 43.7309 54.834 42.7836 53.1055C41.8363 54.8242 39.6195 56.0742 36.2797 56.4062L35.4008 54.4531C38.7113 54.1504 40.5375 52.9785 40.9867 51.7383H36.182V49.7852H49.4437ZM68.0523 62.7734V64.8242H51.7828V62.7734H55.943V60.0586H53.6578V54.082H63.7164V52.168H53.6383V50.1758H66.1773V56.0742H56.1578V58.0469H66.5875V60.0586H64.068V62.7734H68.0523ZM58.3648 62.7734H61.6266V60.0586H58.3648V62.7734Z" fill="white" fill-opacity="0.4"/>
<path d="M24.8075 13.125L26.785 0H16.5L12.2025 11.25C12.07 11.65 12 12.065 12 12.5C12 15.26 14.875 17.5 18.4275 17.5C21.7025 17.5 24.41 15.59 24.8075 13.125ZM34.5 17.5C38.05 17.5 40.9275 15.26 40.9275 12.5C40.9275 12.3975 40.92 12.295 40.915 12.1975L39.6425 0H29.3575L28.0825 12.1875C28.0766 12.2916 28.0733 12.3958 28.0725 12.5C28.0725 15.26 30.95 17.5 34.5 17.5ZM47 20.115V30H22V20.13C20.905 20.525 19.7 20.75 18.4275 20.75C17.94 20.75 17.4675 20.6925 17 20.6275V36.5C17 38.425 18.5725 40 20.495 40H48.5C50.425 40 52 38.4225 52 36.5V20.63C51.5274 20.7026 51.0505 20.7435 50.5725 20.7525C49.3535 20.7513 48.1442 20.5355 47 20.115ZM56.8 11.25L52.4975 0H42.215L44.19 13.105C44.575 15.58 47.2825 17.5 50.5725 17.5C54.1225 17.5 57 15.26 57 12.5C57 12.065 56.93 11.65 56.8 11.25Z" fill="white" fill-opacity="0.4"/>
</svg>
