<svg width="50" height="38" viewBox="0 0 50 38" fill="none" xmlns="http://www.w3.org/2000/svg">
<path d="M41.6667 5.42857H38.8889V2.71429C38.8889 1.99441 38.5962 1.30402 38.0753 0.794996C37.5544 0.285968 36.8478 0 36.1111 0H2.77778C2.04107 0 1.33453 0.285968 0.813593 0.794996C0.292658 1.30402 0 1.99441 0 2.71429V27.1429C0 30.0224 1.17063 32.7839 3.25437 34.82C5.33811 36.8561 8.16426 38 11.1111 38H27.7778C32.9389 38 37.2528 34.5284 38.4944 29.8571H41.6667C43.8768 29.8571 45.9964 28.9992 47.5592 27.4722C49.122 25.9451 50 23.8739 50 21.7143V13.5714C50 11.4118 49.122 9.34064 47.5592 7.81356C45.9964 6.28648 43.8768 5.42857 41.6667 5.42857ZM44.4444 21.7143C44.4444 22.4342 44.1518 23.1245 43.6309 23.6336C43.1099 24.1426 42.4034 24.4286 41.6667 24.4286H38.8889V10.8571H41.6667C42.4034 10.8571 43.1099 11.1431 43.6309 11.6521C44.1518 12.1612 44.4444 12.8516 44.4444 13.5714V21.7143Z" fill="white"/>
</svg>
