<svg width="46" height="46" viewBox="0 0 46 46" fill="none" xmlns="http://www.w3.org/2000/svg">
<path d="M31.4744 3.34525C29.3226 1.18798 26.3172 0 23 0C19.6651 0 16.6497 1.1808 14.5079 3.32471C12.3429 5.49224 11.288 8.43808 11.5357 11.619C12.0266 17.8947 17.1694 22.9999 23 22.9999C28.8306 22.9999 33.9645 17.8957 34.4632 11.6211C34.7142 8.46888 33.6527 5.52921 31.4744 3.34525ZM42.461 45.9997H3.539C3.02954 46.0059 2.52502 45.9065 2.06213 45.7088C1.59924 45.5111 1.18964 45.2201 0.863109 44.8569C0.144378 44.0591 -0.145325 42.9697 0.0691882 41.868C1.00243 37.0606 3.91495 33.0223 8.49271 30.1873C12.5596 27.6707 17.7113 26.2856 23 26.2856C28.2887 26.2856 33.4404 27.6717 37.5073 30.1873C42.0851 33.0212 44.9976 37.0596 45.9308 41.8669C46.1453 42.9687 45.8556 44.0581 45.1369 44.8559C44.8105 45.2193 44.4009 45.5105 43.938 45.7083C43.4751 45.9062 42.9705 46.0058 42.461 45.9997Z" fill="white"/>
</svg>
