<svg width="69" height="66" viewBox="0 0 69 66" fill="none" xmlns="http://www.w3.org/2000/svg">
<path d="M5.48828 44.9805C6.9043 44.9805 8.14453 45.498 9.00391 46.3672H13.0273V44.0234H15.5078V54.4336H13.0273V52.3047H8.98438C8.125 53.1641 6.89453 53.6816 5.48828 53.6719C2.79297 53.6914 0.742188 51.8359 0.761719 49.3359C0.742188 46.7969 2.79297 44.9805 5.48828 44.9805ZM5.48828 47.1094C4.10156 47.1094 3.10547 47.9297 3.125 49.3359C3.10547 50.7031 4.10156 51.582 5.48828 51.5625C6.83594 51.582 7.8125 50.7031 7.8125 49.3359C7.8125 47.9297 6.83594 47.1094 5.48828 47.1094ZM9.43359 54.8047C13.2031 54.8047 15.5469 56.0938 15.5664 58.3008C15.5469 60.5078 13.2031 61.7969 9.43359 61.7969C5.68359 61.7969 3.32031 60.5078 3.32031 58.3008C3.32031 56.0938 5.68359 54.8047 9.43359 54.8047ZM9.43359 56.6992C7.07031 56.6992 5.76172 57.2266 5.76172 58.3008C5.76172 59.3359 7.07031 59.8633 9.43359 59.8633C11.8359 59.8633 13.125 59.3359 13.125 58.3008C13.125 57.2266 11.8359 56.6992 9.43359 56.6992ZM10.0781 48.3398C10.1367 48.6523 10.1758 48.9941 10.1758 49.3359C10.1758 49.6777 10.1367 50 10.0781 50.3125H13.0273V48.3398H10.0781ZM22.5734 44.7852C24.8488 44.7656 26.6555 46.0645 27.1437 47.9688H30.1125V44.0234H32.593V53.5742H30.1125V49.9609H27.1633C26.6945 51.9141 24.8684 53.2422 22.5734 53.2422C19.8391 53.2422 17.8273 51.4648 17.8469 48.9844C17.8273 46.543 19.8391 44.7656 22.5734 44.7852ZM22.5734 46.8555C21.1867 46.8359 20.1906 47.6562 20.2102 48.9844C20.1906 50.3125 21.1867 51.1523 22.5734 51.1523C23.9211 51.1523 24.8977 50.3125 24.8977 48.9844C24.8977 47.6562 23.9211 46.8359 22.5734 46.8555ZM23.1984 54.3555V56.0742H30.1125V54.3555H32.593V61.6016H20.7375V54.3555H23.1984ZM23.1984 59.5898H30.1125V57.9883H23.1984V59.5898ZM41.6117 48.0469C41.6117 51.3086 43.0961 54.5898 46.1039 55.8594L44.6391 57.8516C42.6078 56.9336 41.2016 55.166 40.4008 52.9688C39.5902 55.3613 38.1352 57.2949 35.9672 58.2812L34.4633 56.2109C37.5687 54.9023 39.0727 51.5039 39.0922 48.0469V45.3906H41.6117V48.0469ZM49.5805 44.0234V61.8359H47.0609V44.0234H49.5805ZM61.8805 45.0586V47.0508H58.3453C58.3648 49.1309 59.5953 51.2598 62.4859 52.1875L61.2164 54.1211C59.2438 53.4863 57.8863 52.2168 57.1148 50.625C56.3238 52.3633 54.9078 53.7402 52.8375 54.4141L51.5094 52.5C54.4488 51.5527 55.7867 49.2773 55.8258 47.0508H52.193V45.0586H61.8805ZM65.8844 44.0234V48.3398H68.2867V50.4102H65.8844V54.7461H63.3844V44.0234H65.8844ZM65.8844 55.5078V61.7969H63.3844V57.4805H53.9117V55.5078H65.8844Z" fill="white"/>
<path d="M23.8075 13.125L25.785 0H15.5L11.2025 11.25C11.07 11.65 11 12.065 11 12.5C11 15.26 13.875 17.5 17.4275 17.5C20.7025 17.5 23.41 15.59 23.8075 13.125ZM33.5 17.5C37.05 17.5 39.9275 15.26 39.9275 12.5C39.9275 12.3975 39.92 12.295 39.915 12.1975L38.6425 0H28.3575L27.0825 12.1875C27.0766 12.2916 27.0733 12.3958 27.0725 12.5C27.0725 15.26 29.95 17.5 33.5 17.5ZM46 20.115V30H21V20.13C19.905 20.525 18.7 20.75 17.4275 20.75C16.94 20.75 16.4675 20.6925 16 20.6275V36.5C16 38.425 17.5725 40 19.495 40H47.5C49.425 40 51 38.4225 51 36.5V20.63C50.5274 20.7026 50.0505 20.7435 49.5725 20.7525C48.3535 20.7513 47.1442 20.5355 46 20.115ZM55.8 11.25L51.4975 0H41.215L43.19 13.105C43.575 15.58 46.2825 17.5 49.5725 17.5C53.1225 17.5 56 15.26 56 12.5C56 12.065 55.93 11.65 55.8 11.25Z" fill="white"/>
</svg>
