<svg width="48" height="48" viewBox="0 0 48 48" fill="none" xmlns="http://www.w3.org/2000/svg">
<path d="M7.66667 31V37.5333C7.66667 40.1467 7.66667 41.4533 8.17533 42.452C8.6226 43.3301 9.33652 44.0441 10.2147 44.4913C11.2133 45 12.52 45 15.1333 45H37.5333C40.1467 45 41.4533 45 42.452 44.4913C43.3301 44.0439 44.0439 43.3301 44.4913 42.452C45 41.4557 45 40.149 45 37.5403V15.1263C45 12.5177 45 11.2133 44.4913 10.217C44.0433 9.33734 43.3293 8.62333 42.452 8.17533C41.4533 7.66667 40.149 7.66666 37.5403 7.66666H31M10 17L24 31H31L31 24L17 10M10 17L3 10L10 3L17 10M10 17L17 10" stroke="white" stroke-width="5" stroke-linecap="round" stroke-linejoin="round"/>
</svg>
