<svg width="45" height="40" viewBox="0 0 45 40" fill="none" xmlns="http://www.w3.org/2000/svg">
<path d="M12.8075 13.125L14.785 0H4.5L0.2025 11.25C0.0699999 11.65 0 12.065 0 12.5C0 15.26 2.875 17.5 6.4275 17.5C9.7025 17.5 12.41 15.59 12.8075 13.125ZM22.5 17.5C26.05 17.5 28.9275 15.26 28.9275 12.5C28.9275 12.3975 28.92 12.295 28.915 12.1975L27.6425 0H17.3575L16.0825 12.1875C16.0766 12.2916 16.0733 12.3958 16.0725 12.5C16.0725 15.26 18.95 17.5 22.5 17.5ZM35 20.115V30H10V20.13C8.905 20.525 7.7 20.75 6.4275 20.75C5.94 20.75 5.4675 20.6925 5 20.6275V36.5C5 38.425 6.5725 40 8.495 40H36.5C38.425 40 40 38.4225 40 36.5V20.63C39.5274 20.7026 39.0505 20.7435 38.5725 20.7525C37.3535 20.7513 36.1442 20.5355 35 20.115ZM44.8 11.25L40.4975 0H30.215L32.19 13.105C32.575 15.58 35.2825 17.5 38.5725 17.5C42.1225 17.5 45 15.26 45 12.5C45 12.065 44.93 11.65 44.8 11.25Z" fill="white"/>
</svg>
