<svg width="32" height="32" viewBox="0 0 32 32" fill="none" xmlns="http://www.w3.org/2000/svg">
<path d="M2.07599 0.381761C1.96623 0.263916 1.83388 0.169395 1.68682 0.103837C1.53975 0.0382794 1.381 0.00302825 1.22003 0.000186671C1.05905 -0.00265491 0.899157 0.026971 0.749875 0.0872975C0.600594 0.147624 0.464987 0.237415 0.351143 0.351314C0.2373 0.465212 0.147552 0.600886 0.0872551 0.75024C0.0269579 0.899593 -0.00265362 1.05957 0.00018658 1.22062C0.00302678 1.38167 0.0382608 1.5405 0.103787 1.68763C0.169312 1.83477 0.263787 1.96719 0.381576 2.077L7.12406 8.82596H3.62654C2.67293 8.82596 1.75835 9.20485 1.0839 9.87934C0.409446 10.5538 0.030329 11.4687 0.0299052 12.4227V19.6147C0.0299052 20.5691 0.408835 21.4843 1.08333 22.1591C1.75783 22.834 2.67265 23.2131 3.62654 23.2131H9.50903C9.80262 23.2134 10.0859 23.3216 10.3051 23.517L17.484 30.4937C18.7724 31.6388 20.8105 30.724 20.8105 29V22.5158L29.9539 31.6637C30.1801 31.8821 30.483 32.0028 30.7973 32C31.1117 31.9971 31.4123 31.8708 31.6345 31.6483C31.8567 31.4258 31.9826 31.1249 31.9852 30.8104C31.9878 30.4959 31.8668 30.193 31.6483 29.9668L2.07599 0.381761ZM24.2329 19.1573L26.0519 20.9757C26.8122 19.4355 27.2066 17.7405 27.2045 16.0227C27.2071 14.1644 26.7456 12.3348 25.8617 10.7003C25.7868 10.5617 25.6853 10.4392 25.563 10.3398C25.4408 10.2405 25.3002 10.1662 25.1492 10.1212C24.9982 10.0762 24.8399 10.0614 24.6832 10.0776C24.5265 10.0938 24.3746 10.1408 24.236 10.2157C24.0975 10.2907 23.9751 10.3923 23.8758 10.5146C23.7764 10.6369 23.7022 10.7776 23.6572 10.9286C23.6122 11.0796 23.5974 11.2381 23.6136 11.3948C23.6298 11.5516 23.6768 11.7036 23.7517 11.8422C24.4231 13.0848 24.8067 14.5066 24.8067 16.0227C24.8067 17.1278 24.6037 18.1833 24.2329 19.1573ZM27.8247 22.7493L29.5719 24.4989C31.1626 21.9585 32.0043 19.0205 32 16.0227C32.0045 12.5984 30.9059 9.26379 28.8669 6.5134C28.6738 6.26913 28.3932 6.10961 28.0846 6.06857C27.776 6.02754 27.4636 6.10821 27.2134 6.29352C26.9632 6.47883 26.7948 6.75425 26.7439 7.06152C26.693 7.36879 26.7636 7.68381 26.9407 7.93996C28.6738 10.2776 29.6072 13.1122 29.6022 16.0227C29.6061 18.3816 28.9933 20.7005 27.8247 22.7493ZM12.0507 6.9676L20.8105 15.7317L20.8089 3.18136C20.8089 1.45574 18.7724 0.54255 17.484 1.68763L12.0507 6.9676Z" fill="white"/>
</svg>
