<svg width="35" height="30" viewBox="0 0 35 30" fill="none" xmlns="http://www.w3.org/2000/svg">
<path d="M22.2203 2.08591V27.9125C22.2203 29.7108 20.0545 30.6641 18.6843 29.4691L10.9276 22.3398C10.6943 22.1368 10.393 22.0247 10.081 22.0248H3.82504C3.32274 22.0248 2.82535 21.9278 2.36128 21.7394C1.89721 21.5509 1.47555 21.2747 1.12036 20.9265C0.765177 20.5783 0.48343 20.1649 0.291206 19.7099C0.0989821 19.2549 4.55379e-05 18.7673 4.55379e-05 18.2749L0.120316 11.2509C0.120767 10.2566 0.403084 9.78343 1.12036 9.08053C1.83764 8.37763 2.81028 7.98278 3.82444 7.98278H10.0804C10.3927 7.98241 10.6939 7.86973 10.927 7.66611L18.6826 0.530918C20.0545 -0.664077 22.2203 0.289252 22.2203 2.08591ZM29.1582 5.19319C29.4299 4.99587 29.7704 4.9124 30.1048 4.96116C30.4392 5.00992 30.7402 5.1869 30.9415 5.45319C33.1097 8.32012 34.126 11.4352 34.1203 15.0042C34.125 18.5728 32.9566 22.0478 30.7883 24.9142C30.5849 25.1748 30.2851 25.3466 29.9536 25.3924C29.6221 25.4382 29.2855 25.3543 29.0165 25.1589C28.7476 24.9635 28.5678 24.6722 28.516 24.3479C28.4642 24.0237 28.5446 23.6925 28.7398 23.4258C30.5826 20.9901 31.5752 18.0368 31.5703 15.0042C31.5756 11.971 30.7345 9.37767 28.8913 6.94152C28.7915 6.80949 28.7192 6.65945 28.6786 6.5C28.638 6.34055 28.6298 6.1748 28.6546 6.01226C28.6794 5.84971 28.7366 5.69355 28.8231 5.55272C28.9095 5.41189 29.0234 5.29082 29.1582 5.19319ZM25.8634 8.95255C26.0106 8.87427 26.1721 8.82519 26.3387 8.80812C26.5053 8.79105 26.6737 8.80632 26.8342 8.85306C26.9948 8.8998 27.1443 8.9771 27.2744 9.08053C27.4045 9.18396 27.5125 9.31151 27.5923 9.45588C28.5035 11.1059 29.0203 12.9975 29.0203 15.0042C29.0231 16.9408 28.5323 18.8475 27.5923 20.5508C27.5126 20.6953 27.4047 20.8229 27.2746 20.9265C27.1446 21.03 26.9951 21.1075 26.8345 21.1544C26.674 21.2013 26.5056 21.2167 26.339 21.1998C26.1723 21.1829 26.0107 21.134 25.8634 21.0558C25.7161 20.9777 25.5859 20.8719 25.4802 20.7444C25.3746 20.6169 25.2956 20.4703 25.2478 20.3129C25.2 20.1555 25.1842 19.9904 25.2015 19.8271C25.2187 19.6637 25.2686 19.5053 25.3483 19.3608C26.0865 18.0229 26.4722 16.5254 26.4703 15.0042C26.4703 13.4242 26.0623 11.9409 25.3483 10.6459C25.1877 10.3543 25.1518 10.0122 25.2483 9.69468C25.3449 9.37716 25.5662 9.11023 25.8634 8.95255Z" fill="white"/>
</svg>
